<?xml version="1.0" standalone="no"?>
<!DOCTYPE svg PUBLIC "-//W3C//DTD SVG 20010904//EN"
 "http://www.w3.org/TR/2001/REC-SVG-20010904/DTD/svg10.dtd">
<svg version="1.0" xmlns="http://www.w3.org/2000/svg"
 width="48.000000pt" height="48.000000pt" viewBox="0 0 48.000000 48.000000"
 preserveAspectRatio="xMidYMid meet">

<g transform="translate(0.000000,48.000000) scale(0.100000,-0.100000)"
fill="#000000" stroke="none">
<path d="M224 467 c-11 -29 0 -102 16 -102 19 0 22 106 3 112 -7 3 -16 -2 -19
-10z"/>
<path d="M83 384 c-6 -17 33 -64 54 -64 25 0 26 30 3 56 -27 28 -48 31 -57 8z"/>
<path d="M340 376 c-23 -26 -22 -56 3 -56 21 0 60 47 54 64 -9 23 -30 20 -57
-8z"/>
<path d="M202 325 c-21 -9 -38 -27 -48 -50 -20 -49 1 -100 51 -120 31 -14 39
-14 70 0 78 32 78 138 1 170 -41 18 -33 18 -74 0z m70 -52 c22 -20 23 -41 1
-65 -20 -22 -41 -23 -65 -1 -22 20 -23 41 -1 65 20 22 41 23 65 1z"/>
<path d="M5 250 c-13 -21 11 -31 61 -28 36 2 49 7 49 18 0 19 -99 27 -110 10z"/>
<path d="M365 250 c-13 -21 11 -31 61 -28 36 2 49 7 49 18 0 19 -99 27 -110
10z"/>
<path d="M100 136 c-23 -26 -22 -56 3 -56 21 0 60 47 54 64 -9 23 -30 20 -57
-8z"/>
<path d="M323 144 c-6 -17 33 -64 54 -64 25 0 26 30 3 56 -27 28 -48 31 -57 8z"/>
<path d="M224 107 c-11 -29 0 -102 16 -102 19 0 22 106 3 112 -7 3 -16 -2 -19
-10z"/>
</g>
</svg>
